<svg width="40" height="63" viewBox="0 0 40 63" fill="none" xmlns="http://www.w3.org/2000/svg">
<path d="M22.9056 62.8403C22.6704 62.7175 22.4726 62.5338 22.3327 62.3084C22.1927 62.083 22.1159 61.8242 22.1102 61.559C22.0378 60.3316 21.3567 59.4946 20.376 58.8244C14.7891 55.0074 9.2071 51.1838 3.63002 47.3536C2.26766 46.4196 1.99642 45.6046 2.54259 44.0508C4.00068 39.9105 5.46205 35.7715 6.92669 31.6337C7.51582 29.9694 8.58361 29.2158 10.3473 29.2133C13.0058 29.2133 15.6642 29.2219 18.3251 29.2133C19.1675 29.1931 19.993 29.452 20.673 29.9498C22.179 31.0421 23.696 32.1197 25.2032 33.2096C25.9396 33.746 25.9911 34.1645 25.4069 34.8862C24.9527 35.4632 24.3103 35.8624 23.5918 36.014C22.8733 36.1657 22.1243 36.0601 21.4757 35.7159C20.6693 35.2789 19.9157 34.7438 19.1572 34.2246C18.4978 33.7667 17.7115 33.5268 16.9087 33.5385C15.9686 33.5385 15.0272 33.5385 14.0858 33.5385C12.3418 33.552 11.2298 34.2749 10.702 35.9196C10.2111 37.4685 9.73609 39.0432 9.46362 40.6412C9.09542 42.8038 10.065 44.5381 11.825 45.288C12.4191 45.542 12.9726 45.3837 13.2635 44.8768C13.5544 44.3699 13.4586 43.7427 12.8842 43.4506C11.5133 42.7498 11.3918 41.5605 11.6569 40.3074C11.9331 39.0137 12.3823 37.7569 12.7811 36.4928C12.9456 35.9699 13.3445 35.7146 13.9029 35.7159C14.9462 35.7159 15.9894 35.6827 17.0315 35.7355C17.3923 35.7539 17.7679 35.9356 18.0919 36.1282C19.2579 36.834 20.3011 37.7312 21.6733 38.092C23.9132 38.675 26.6318 37.4783 27.6517 35.4041C27.9437 34.8238 28.0361 34.1635 27.9147 33.5253C27.7933 32.8872 27.4649 32.3069 26.9804 31.8742C26.4637 31.4164 25.8819 31.0311 25.3198 30.6064C25.4904 30.1682 25.7285 29.7472 25.8107 29.3066C26.0488 28.0461 25.6291 26.9968 24.5907 26.2456C22.7497 24.9152 20.9197 23.5737 19.0235 22.3304C18.4601 21.9622 17.7028 21.821 17.0143 21.7277C16.2779 21.6271 15.5108 21.7044 14.7363 21.7044C14.4307 20.0438 14.5559 18.4446 14.8321 16.8515C14.8652 16.6588 15.0591 16.4734 15.215 16.3237C16.4963 15.089 17.7826 13.8592 19.0738 12.6343C21.0535 10.7466 21.5125 8.72026 20.5343 6.17842C20.5061 6.10723 20.4889 6.03237 20.4595 5.93295C21.4634 5.65434 22.3005 5.90595 23.0025 6.61413C23.6788 7.29776 23.8175 8.08695 23.4174 8.97801C22.9129 10.0937 22.3889 11.202 21.9286 12.336C20.6166 15.5713 21.1689 18.5833 23.1167 21.3914C24.6828 23.6485 26.6613 25.5166 28.8374 27.16C32.8312 30.1854 35.3202 34.2246 36.8876 38.9021C37.851 41.7753 38.072 44.7381 37.8547 47.739C37.6092 51.2271 38.04 54.6293 39.0391 57.9714C39.3484 59.0085 39.6086 60.0579 39.8884 61.1048C40.1339 62.0131 40.0014 62.3482 39.222 62.8403H22.9056ZM28.5784 54.8748C28.463 52.9638 27.4971 51.475 26.1765 50.1925C23.9329 48.0127 21.191 46.6614 18.3018 45.5752C18.0418 45.4684 17.7502 45.4692 17.4908 45.5774C17.2315 45.6855 17.0256 45.8922 16.9186 46.152C16.6915 46.7068 16.9357 47.2947 17.5249 47.5758C17.7458 47.6813 17.9814 47.7537 18.2097 47.8433C20.3146 48.6693 22.2968 49.7138 24.0421 51.167C25.2768 52.1967 26.2869 53.3762 26.4489 55.0773C26.5275 55.8947 26.9767 56.3231 27.6309 56.2605C28.2851 56.1979 28.6312 55.7008 28.5784 54.8748ZM31.6885 47.6113C32.366 47.6248 32.8263 47.2701 32.9159 46.6687C33.014 45.9765 32.5182 45.4843 31.5854 45.4316C30.4538 45.369 29.3762 45.0707 28.506 44.381C27.475 43.566 26.5422 42.6148 25.6045 41.6918C25.0326 41.1322 24.4287 41.0082 23.9341 41.439C23.4395 41.8698 23.4186 42.4835 23.9341 43.0701C24.5907 43.8201 25.2523 44.5798 25.9985 45.2364C27.6125 46.6601 29.4879 47.5426 31.6885 47.6113Z" fill="#263238"/>
<path d="M27.3236 0C28.2846 0.634541 28.3534 1.23717 27.558 2.0865C27.2734 2.40791 26.9728 2.71473 26.6572 3.00578C26.1797 3.42308 25.5808 3.39117 25.1696 2.96651C25.0725 2.87446 24.9945 2.76414 24.9402 2.64188C24.8858 2.51962 24.8561 2.38782 24.8528 2.25406C24.8495 2.1203 24.8726 1.9872 24.9209 1.8624C24.9691 1.7376 25.0416 1.62356 25.134 1.52683C25.625 0.989245 26.181 0.506895 26.7099 0.00122668L27.3236 0Z" fill="#263238"/>
<path d="M1.30261 28.7653C1.22651 26.4051 1.1001 24.0437 1.10991 21.6823C1.10991 21.1656 1.51617 20.5777 1.88192 20.1481C4.31944 17.2699 7.1718 14.8042 9.90757 12.2231C11.9597 10.288 14.0192 8.35938 16.0861 6.43735C17.0458 5.54015 17.7663 5.65061 18.4328 6.78591C19.2146 8.11759 18.9801 9.71683 17.7835 10.8656C15.9105 12.6657 14.0233 14.4487 12.1217 16.2144C10.7716 17.4663 9.3614 18.6519 8.03831 19.9296C7.64065 20.3138 7.45655 20.9115 7.15216 21.4024C7.05029 21.5669 6.8981 21.7768 6.73364 21.8148C4.65942 22.2959 3.33142 23.5724 2.63674 25.557C2.25994 26.6322 1.86842 27.7012 1.48426 28.7727L1.30261 28.7653Z" fill="#263238"/>
<path d="M23.4649 29.2941C22.931 28.9136 22.4265 28.5675 21.9356 28.2005C20.8469 27.3868 19.6171 27.0272 18.267 27.0284C15.6282 27.0284 12.9894 27.0198 10.3506 27.0284C7.66151 27.0419 5.7628 28.3969 4.86683 30.9289C3.67548 34.2984 2.48904 37.6687 1.30751 41.0399C1.2351 41.2473 1.15778 41.4523 1.08046 41.6683C0.105938 41.1086 -0.230358 40.1255 0.157485 39.0098C0.830073 37.0817 1.51616 35.1584 2.19857 33.2351C3.00535 30.9645 3.81294 28.6943 4.62136 26.4246C5.27799 24.5835 6.30897 23.8471 8.25187 23.8398C11.0748 23.8398 13.8977 23.8189 16.7206 23.8582C17.2016 23.8744 17.6687 24.0231 18.0707 24.2878C19.7816 25.4439 21.4545 26.6553 23.1372 27.8532C23.7766 28.311 23.838 28.5737 23.4649 29.2941Z" fill="#263238"/>
<path d="M4.86029 13.9771V11.5101C4.86029 9.59053 4.86029 7.67218 4.86029 5.75383C4.86029 4.69953 5.30459 4.30432 6.33925 4.40374C7.80102 4.54734 9.05415 5.79801 9.14743 7.26224C9.19775 8.05511 9.18056 8.8578 9.16706 9.64944C9.15814 9.82691 9.08534 9.99518 8.9621 10.1232C7.6476 11.3763 6.31838 12.6123 4.86029 13.9771Z" fill="#263238"/>
<path d="M31.3614 5.77484C31.2141 5.93316 30.9932 6.32223 30.6581 6.49284C30.1782 6.73831 29.6222 6.85368 29.0871 6.96782C28.8244 7.0174 28.5527 6.96677 28.3255 6.82591C28.0983 6.68505 27.9321 6.46419 27.8597 6.20686C27.7809 5.96066 27.799 5.69366 27.9103 5.46033C28.0216 5.22701 28.2177 5.04494 28.4587 4.95128C29.0281 4.731 29.6175 4.56658 30.2187 4.46034C30.8299 4.36706 31.3724 4.90955 31.3614 5.77484Z" fill="#263238"/>
<path d="M28.1597 9.57336C28.6887 9.74028 29.349 9.89125 29.9565 10.1588C30.461 10.3797 30.6242 10.8572 30.4475 11.3935C30.2707 11.9299 29.8583 12.2122 29.3195 12.1189C28.7189 12.0128 28.1316 11.8416 27.5681 11.6083C27.0563 11.3984 26.8661 10.9296 27.0047 10.3945C27.1324 9.89002 27.5178 9.64455 28.1597 9.57336Z" fill="#263238"/>
<path d="M12.4191 18.8632V21.6431H9.34454L12.4191 18.8632Z" fill="#263238"/>
</svg>
