<svg width="50" height="40" viewBox="0 0 50 40" fill="none" xmlns="http://www.w3.org/2000/svg">
<path d="M49.9987 33.7758C49.9451 34.0414 49.8851 34.3058 49.8403 34.5728C49.4163 37.0672 47.1441 39.0048 44.6165 39.006C31.5197 39.006 18.4229 39.006 5.32607 39.006C2.64388 39.006 0.280991 36.8245 0.0894058 34.1717C0.0383163 33.4424 0.00766342 32.7105 0.00638619 31.9787C-0.00212873 28.3309 -0.00212873 24.6823 0.00638619 21.0328C0.00638619 19.5959 0.337188 18.2573 1.30917 17.141C2.35905 15.9366 3.67972 15.2826 5.28393 15.2545C6.47304 15.2328 7.66215 15.2635 8.85125 15.2354C9.10205 15.2242 9.34104 15.1257 9.52691 14.9569C12.8222 11.6872 16.1064 8.40514 19.3795 5.11072C19.5546 4.90411 19.6703 4.65379 19.7142 4.38653C20.28 1.69156 22.5088 -0.083802 25.2574 0.0030501C27.5985 0.0720209 29.7686 1.92912 30.2118 4.26264C30.2808 4.67535 30.4805 5.055 30.7814 5.34573C33.9949 8.53882 37.1893 11.746 40.4041 14.9365C40.6009 15.1155 40.8537 15.2207 41.1194 15.2341C42.2689 15.266 43.4324 15.2443 44.5896 15.2507C45.9138 15.2496 47.1905 15.7442 48.1682 16.6373C49.146 17.5304 49.7539 18.7572 49.8723 20.0761C49.9006 20.216 49.9434 20.3525 50 20.4835L49.9987 33.7758ZM12.3368 15.0502L12.4454 15.1881H37.4397L29.8707 7.61411C28.8566 9.52996 27.2665 10.6986 24.9674 10.6974C22.6684 10.6961 21.0897 9.51463 19.967 7.40847L12.3368 15.0502ZM17.4637 30.0053C17.6808 30.2084 17.7996 30.3144 17.912 30.4268C19.1803 31.6939 20.4422 32.9647 21.7169 34.2241C21.9097 34.4203 22.1342 34.5827 22.381 34.7043C22.8459 34.9202 23.2828 34.7988 23.6302 34.4399C23.794 34.289 23.904 34.0886 23.9435 33.8693C23.9829 33.65 23.9496 33.4239 23.8486 33.2253C23.7256 32.9787 23.5624 32.7542 23.3658 32.5611C22.0885 31.2762 20.8113 30.0066 19.5341 28.7217C19.4153 28.6042 19.308 28.4765 19.1509 28.3041C19.6618 28.2543 20.0909 28.2645 20.492 28.1649C22.7527 27.6016 24.0785 25.7662 23.9405 23.4391C23.8128 21.3418 21.865 19.4796 19.7704 19.4592C18.5979 19.4498 17.4254 19.4498 16.2528 19.4592C15.9903 19.4496 15.7333 19.5368 15.5308 19.7042C15.3283 19.8716 15.1943 20.1076 15.1544 20.3673C15.1069 20.5899 15.0821 20.8167 15.0803 21.0443C15.0752 25.0829 15.0752 29.1219 15.0803 33.1614C15.084 33.4047 15.11 33.6471 15.1583 33.8856C15.2101 34.1385 15.3463 34.3663 15.5445 34.5317C15.7428 34.6971 15.9913 34.7902 16.2494 34.7958C16.5076 34.8015 16.7599 34.7193 16.9652 34.5627C17.1705 34.4062 17.3165 34.1845 17.3794 33.9341C17.436 33.6305 17.4634 33.3221 17.4611 33.0132C17.4726 32.0566 17.4637 31.0987 17.4637 30.0053ZM36.8547 27.1022C36.8547 29.202 36.8547 31.303 36.8547 33.4041C36.8547 34.2509 37.2596 34.7822 37.9761 34.7886C40.19 34.8099 42.4038 34.8099 44.6177 34.7886C44.8926 34.7781 45.1542 34.668 45.354 34.479C45.5537 34.2899 45.678 34.0347 45.7036 33.7609C45.7292 33.4871 45.6544 33.2132 45.4932 32.9904C45.332 32.7676 45.0953 32.6109 44.8272 32.5496C44.5906 32.4941 44.3485 32.4659 44.1056 32.4653C42.6393 32.4589 41.1743 32.45 39.708 32.4653C39.2993 32.4653 39.1729 32.3376 39.1818 31.9327C39.2048 30.8905 39.2022 29.8482 39.1818 28.806C39.1741 28.4228 39.3095 28.2951 39.6927 28.2951C40.62 28.2951 41.5472 28.2777 42.4745 28.2428C42.6214 28.2372 42.7655 28.202 42.8984 28.1392C43.0313 28.0764 43.15 27.9874 43.2475 27.8775C43.345 27.7675 43.4193 27.639 43.4658 27.4996C43.5123 27.3602 43.53 27.2129 43.518 27.0664C43.4848 26.3665 43.0071 25.954 42.1361 25.9297C41.3058 25.9067 40.4756 25.9131 39.6454 25.9297C39.3146 25.9297 39.178 25.8275 39.1831 25.4814C39.1984 24.4059 39.1984 23.3309 39.1831 22.2563C39.1767 21.8898 39.3108 21.7761 39.6672 21.7799C41.1168 21.794 42.5652 21.7876 44.0098 21.7799C44.2208 21.7824 44.4317 21.7649 44.6394 21.7276C45.3343 21.5999 45.7685 21.089 45.7021 20.4976C45.6255 19.8309 45.1644 19.4554 44.407 19.4554C42.3881 19.4554 40.3688 19.4554 38.349 19.4554C37.2455 19.4554 36.847 19.8462 36.8457 20.9433C36.8508 22.998 36.8547 25.0509 36.8572 27.1022H36.8547ZM30.4391 19.4579C29.365 19.4579 28.2895 19.4579 27.2154 19.4579C26.449 19.4579 26.0173 19.9037 26.002 20.6751V20.7722C26.002 25.005 26.002 29.2377 26.002 33.4705C26.002 34.2637 26.3852 34.7784 27.0672 34.786C29.2973 34.809 31.5278 34.809 33.7587 34.786C34.373 34.786 34.8022 34.2752 34.8111 33.6621C34.82 32.9353 34.3143 32.473 33.4508 32.4666C31.9045 32.4538 30.3582 32.4538 28.8119 32.4666C28.4505 32.4666 28.3253 32.3516 28.3304 31.9889C28.3496 30.9467 28.3534 29.9044 28.3304 28.8635C28.3202 28.4395 28.4581 28.2887 28.8873 28.2939C29.7979 28.3028 30.7099 28.2785 31.6206 28.2428C31.8832 28.2264 32.1311 28.1159 32.3188 27.9314C32.5065 27.747 32.6213 27.5011 32.6424 27.2389C32.6751 26.9697 32.6093 26.6978 32.4572 26.4733C32.3051 26.2489 32.0768 26.0871 31.8147 26.0178C31.5632 25.9604 31.3063 25.9304 31.0484 25.9284C30.2999 25.9169 29.5514 25.9131 28.8017 25.9284C28.4709 25.9348 28.3355 25.825 28.3406 25.4788C28.3559 24.4047 28.3585 23.3292 28.3406 22.2551C28.3406 21.8885 28.4683 21.7748 28.826 21.7787C30.2744 21.7927 31.724 21.7876 33.1686 21.7787C33.3954 21.7777 33.6216 21.7555 33.8442 21.7122C34.5493 21.5705 34.8877 21.1107 34.8098 20.4273C34.7421 19.8322 34.29 19.4579 33.6194 19.4541C32.5581 19.4554 31.4992 19.4579 30.4417 19.4579H30.4391ZM4.21361 27.1035C4.21361 29.1866 4.19189 31.2711 4.23149 33.3543C4.25205 33.7674 4.3982 34.1644 4.65042 34.4923C4.9378 34.8563 5.41676 34.8921 5.86124 34.6928C6.35297 34.4744 6.54839 34.0695 6.54967 33.5573C6.54967 32.0106 6.56627 30.4639 6.54201 28.9184C6.53434 28.4573 6.66973 28.2798 7.14487 28.2939C8.03893 28.3117 8.933 28.2849 9.82707 28.2466C10.5232 28.2172 10.9766 27.6297 10.8642 26.9438C10.7607 26.2899 10.3162 25.9514 9.47455 25.9322C8.67755 25.9144 7.87927 25.9105 7.08228 25.9322C6.68889 25.9425 6.53179 25.8262 6.54201 25.4086C6.56627 24.3676 6.56372 23.3254 6.54201 22.2844C6.53434 21.9013 6.66973 21.7736 7.0529 21.7736C8.43615 21.7914 9.82067 21.7825 11.2039 21.7736C11.4636 21.7805 11.7233 21.7655 11.9805 21.7289C12.6945 21.6011 13.13 21.1145 13.0853 20.5282C13.0278 19.8398 12.5578 19.4477 11.7761 19.4477C9.77341 19.4477 7.77241 19.4477 5.77311 19.4477C4.61338 19.4477 4.22127 19.8309 4.21999 20.9893C4.21318 23.0312 4.21105 25.0693 4.21361 27.1035Z" fill="#263238"/>
<path d="M17.4636 23.8605C17.4636 23.3407 17.479 22.8196 17.4636 22.301C17.4509 21.9332 17.5658 21.762 17.9618 21.7812C18.4969 21.8067 19.0346 21.7812 19.5698 21.7927C20.7436 21.8182 21.6057 22.6868 21.6134 23.8273C21.6134 25.0164 20.7768 25.8888 19.58 25.9195C19.0283 25.9335 18.4752 25.9131 17.9196 25.9309C17.5786 25.9412 17.4547 25.8032 17.4636 25.4686C17.4777 24.9334 17.4636 24.397 17.4636 23.8605Z" fill="#263238"/>
</svg>
