<svg width="60" height="60" viewBox="0 0 60 60" fill="none" xmlns="http://www.w3.org/2000/svg">
<path d="M30 0C13.44 0 0 13.44 0 30C0 46.56 13.44 60 30 60C46.56 60 60 46.56 60 30C60 13.44 46.56 0 30 0ZM19.59 34.41C20.46 35.28 20.46 36.72 19.59 37.59C19.14 38.04 18.57 38.25 18 38.25C17.43 38.25 16.86 38.04 16.41 37.59L10.41 31.59C9.99156 31.1666 9.7569 30.5953 9.7569 30C9.7569 29.4047 9.99156 28.8334 10.41 28.41L16.41 22.41C17.28 21.54 18.72 21.54 19.59 22.41C20.46 23.28 20.46 24.72 19.59 25.59L15.18 30L19.59 34.41ZM35.07 23.88L29.07 37.89C28.8314 38.4317 28.3895 38.858 27.8395 39.0769C27.2895 39.2957 26.6756 39.2897 26.13 39.06C25.8562 38.9442 25.6083 38.775 25.4007 38.5622C25.1932 38.3494 25.0301 38.0973 24.9212 37.8207C24.8122 37.5442 24.7596 37.2486 24.7662 36.9515C24.7729 36.6543 24.8388 36.3614 24.96 36.09L30.96 22.08C31.44 20.94 32.76 20.4 33.9 20.91C35.04 21.42 35.55 22.74 35.07 23.88ZM49.59 31.59L43.59 37.59C43.14 38.04 42.57 38.25 42 38.25C41.43 38.25 40.86 38.04 40.41 37.59C39.9916 37.1666 39.7569 36.5953 39.7569 36C39.7569 35.4047 39.9916 34.8334 40.41 34.41L44.82 30L40.41 25.59C39.9916 25.1666 39.7569 24.5953 39.7569 24C39.7569 23.4047 39.9916 22.8334 40.41 22.41C41.28 21.54 42.72 21.54 43.59 22.41L49.59 28.41C50.46 29.28 50.46 30.72 49.59 31.59Z" fill="#263238"/>
</svg>
