<?xml version="1.0" encoding="UTF-8"?>
<svg xmlns="http://www.w3.org/2000/svg" xmlns:xlink="http://www.w3.org/1999/xlink" width="26px" height="26px" viewBox="0 0 26 26" version="1.1">
<g id="surface1">
<path style="fill:none;stroke-width:1;stroke-linecap:butt;stroke-linejoin:miter;stroke:rgb(100%,100%,100%);stroke-opacity:1;stroke-miterlimit:10;" d="M 25 49.000901 C 38.251202 49.000901 49.000901 38.251202 49.000901 25 C 49.000901 11.748798 38.251202 0.999099 25 0.999099 C 11.748798 0.999099 0.999099 11.748798 0.999099 25 C 0.999099 38.251202 11.748798 49.000901 25 49.000901 Z M 25 49.000901 " transform="matrix(0.52,0,0,0.52,0,0)"/>
<path style=" stroke:none;fill-rule:nonzero;fill:rgb(100%,100%,100%);fill-opacity:1;" d="M 18.53125 6.238281 L 7.46875 6.238281 C 6.789062 6.238281 6.238281 6.789062 6.238281 7.46875 L 6.238281 18.53125 C 6.238281 19.210938 6.789062 19.761719 7.46875 19.761719 L 18.53125 19.761719 C 19.210938 19.761719 19.761719 19.210938 19.761719 18.53125 L 19.761719 7.46875 C 19.761719 6.789062 19.210938 6.238281 18.53125 6.238281 Z M 13 16.304688 C 13 17.398438 12.332031 18.011719 11.21875 18.011719 C 10.117188 18.011719 9.417969 17.367188 9.417969 16.328125 L 10.609375 16.328125 C 10.613281 16.714844 10.84375 16.957031 11.199219 16.957031 C 11.5625 16.957031 11.757812 16.726562 11.757812 16.296875 L 11.757812 13 L 13 13 Z M 16.367188 18.011719 C 15.132812 18.011719 14.355469 17.429688 14.335938 16.488281 L 15.519531 16.488281 C 15.550781 16.84375 15.90625 17.070312 16.417969 17.070312 C 16.882812 17.070312 17.199219 16.847656 17.199219 16.527344 C 17.199219 16.253906 16.988281 16.109375 16.429688 16 L 15.785156 15.871094 C 14.894531 15.699219 14.433594 15.214844 14.433594 14.445312 C 14.433594 13.492188 15.199219 12.867188 16.375 12.867188 C 17.519531 12.867188 18.308594 13.484375 18.328125 14.390625 L 17.183594 14.390625 C 17.15625 14.042969 16.828125 13.804688 16.390625 13.804688 C 15.957031 13.804688 15.667969 14.011719 15.667969 14.335938 C 15.667969 14.601562 15.882812 14.757812 16.398438 14.859375 L 17.027344 14.980469 C 17.992188 15.167969 18.421875 15.601562 18.421875 16.375 C 18.425781 17.394531 17.648438 18.011719 16.367188 18.011719 Z M 16.367188 18.011719 "/>
</g>
</svg>
