<svg width="48" height="48" viewBox="0 0 48 48" fill="none" xmlns="http://www.w3.org/2000/svg">
<path d="M24 0C10.752 0 0 10.752 0 24C0 37.248 10.752 48 24 48C37.248 48 48 37.248 48 24C48 10.752 37.248 0 24 0ZM15.672 27.528C16.368 28.224 16.368 29.376 15.672 30.072C15.312 30.432 14.856 30.6 14.4 30.6C13.944 30.6 13.488 30.432 13.128 30.072L8.328 25.272C7.99325 24.9333 7.80552 24.4762 7.80552 24C7.80552 23.5238 7.99325 23.0667 8.328 22.728L13.128 17.928C13.824 17.232 14.976 17.232 15.672 17.928C16.368 18.624 16.368 19.776 15.672 20.472L12.144 24L15.672 27.528ZM28.056 19.104L23.256 30.312C23.0651 30.7454 22.7116 31.0864 22.2716 31.2615C21.8316 31.4366 21.3404 31.4317 20.904 31.248C20.685 31.1554 20.4866 31.02 20.3206 30.8497C20.1545 30.6795 20.0241 30.4778 19.937 30.2566C19.8498 30.0353 19.8076 29.7989 19.813 29.5612C19.8183 29.3234 19.871 29.0891 19.968 28.872L24.768 17.664C25.152 16.752 26.208 16.32 27.12 16.728C28.032 17.136 28.44 18.192 28.056 19.104ZM39.672 25.272L34.872 30.072C34.512 30.432 34.056 30.6 33.6 30.6C33.144 30.6 32.688 30.432 32.328 30.072C31.9932 29.7333 31.8055 29.2762 31.8055 28.8C31.8055 28.3238 31.9932 27.8667 32.328 27.528L35.856 24L32.328 20.472C31.9932 20.1333 31.8055 19.6762 31.8055 19.2C31.8055 18.7238 31.9932 18.2667 32.328 17.928C33.024 17.232 34.176 17.232 34.872 17.928L39.672 22.728C40.368 23.424 40.368 24.576 39.672 25.272Z" fill="white"/>
</svg>
