<svg width="230" height="230" viewBox="0 0 230 230" fill="none" xmlns="http://www.w3.org/2000/svg">
<path d="M222.033 115.618C212.702 143.426 190.902 164.521 168.238 174.554C150.652 182.347 131.945 181.578 113.296 174.887C95.6008 168.536 79.3533 158.243 61.1781 162.879C46.9223 166.532 30.8413 171.752 17.9559 156.728C11.5517 149.223 7.25448 139.057 4.43662 128.632C-4.5293 95.574 -0.0463441 60.6089 19.1663 38.9009C35.5868 20.313 59.0583 11.3517 81.6973 12.9414C86.0454 13.2347 90.362 13.9771 94.5954 15.1595C105.784 18.2945 117.99 23.2187 129.466 21.4294C142.992 19.3296 152.381 7.46262 164.69 2.01342C177.389 -3.60583 190.608 3.04115 200.745 15.6919C221.969 42.2207 233.273 82.11 222.033 115.618Z" fill="#222A2B"/>
<path opacity="0.7" d="M222.033 115.618C212.702 143.426 190.902 164.521 168.238 174.554C150.652 182.347 131.945 181.578 113.296 174.887C95.6008 168.536 79.3533 158.243 61.1781 162.879C46.9223 166.532 30.8413 171.752 17.9559 156.728C11.5517 149.223 7.25448 139.057 4.43662 128.632C-4.5293 95.574 -0.0463441 60.6089 19.1663 38.9009C35.5868 20.313 59.0583 11.3517 81.6973 12.9414C86.0454 13.2347 90.362 13.9771 94.5954 15.1595C105.784 18.2945 117.99 23.2187 129.466 21.4294C142.992 19.3296 152.381 7.46262 164.69 2.01342C177.389 -3.60583 190.608 3.04115 200.745 15.6919C221.969 42.2207 233.273 82.11 222.033 115.618Z" fill="white"/>
<g opacity="0.1">
<path d="M143.428 30.8713H89.2158L89.7666 25.0598H143.978L143.428 30.8713Z" fill="#263238"/>
<path d="M143.428 39.0193H89.2158L89.7666 33.2004H143.978L143.428 39.0193Z" fill="#263238"/>
<path d="M143.428 47.1597H89.2158L89.7666 41.3408H143.978L143.428 47.1597Z" fill="#263238"/>
<path d="M143.428 55.3003H89.2158L89.7666 49.4888H143.978L143.428 55.3003Z" fill="#263238"/>
<path d="M143.428 63.4483H89.2158L89.7666 57.6294H143.978L143.428 63.4483Z" fill="#263238"/>
<path d="M143.428 71.5887H89.2158L89.7666 65.7698H143.978L143.428 71.5887Z" fill="#263238"/>
<path d="M143.428 79.7292H89.2158L89.7666 73.9177H143.978L143.428 79.7292Z" fill="#263238"/>
<path d="M143.428 87.8772H89.2158L89.7666 82.0583H143.978L143.428 87.8772Z" fill="#263238"/>
<path d="M143.428 96.0176H89.2158L89.7666 90.1987H143.978L143.428 96.0176Z" fill="#263238"/>
<path d="M143.428 104.158H89.2158L89.7666 98.3467H143.978L143.428 104.158Z" fill="#263238"/>
<path d="M143.428 112.306H89.2158L89.7666 106.487H143.978L143.428 112.306Z" fill="#263238"/>
<path d="M200.752 30.8713H146.54L147.091 25.0598H201.296L200.752 30.8713Z" fill="#263238"/>
<path d="M200.752 39.0193H146.54L147.091 33.2004H201.296L200.752 39.0193Z" fill="#263238"/>
<path d="M200.752 47.1597H146.54L147.091 41.3408H201.296L200.752 47.1597Z" fill="#263238"/>
<path d="M200.752 55.3003H146.54L147.091 49.4888H201.296L200.752 55.3003Z" fill="#263238"/>
<path d="M200.752 63.4483H146.54L147.091 57.6294H201.296L200.752 63.4483Z" fill="#263238"/>
<path d="M200.752 71.5887H146.54L147.091 65.7698H201.296L200.752 71.5887Z" fill="#263238"/>
<path d="M200.752 79.7292H146.54L147.091 73.9177H201.296L200.752 79.7292Z" fill="#263238"/>
<path d="M200.752 87.8772H146.54L147.091 82.0583H201.296L200.752 87.8772Z" fill="#263238"/>
<path d="M200.752 96.0176H146.54L147.091 90.1987H201.296L200.752 96.0176Z" fill="#263238"/>
<path d="M200.752 104.158H146.54L147.091 98.3467H201.296L200.752 104.158Z" fill="#263238"/>
<path d="M200.752 112.306H146.54L147.091 106.487H201.296L200.752 112.306Z" fill="#263238"/>
</g>
<g opacity="0.4">
<path d="M26.2495 50.265H47.9214V57.8362H26.2495C25.3781 57.8362 24.5425 57.4366 23.9264 56.7253C23.3102 56.014 22.9641 55.0492 22.9641 54.0432C22.9641 53.0373 23.3102 52.0725 23.9264 51.3612C24.5425 50.6499 25.3781 50.2502 26.2495 50.2502V50.265Z" fill="#222A2B"/>
<path d="M47.947 40.7864H26.2495C25.3781 40.7864 24.5425 41.186 23.9264 41.8973C23.3102 42.6086 22.9641 43.5734 22.9641 44.5794C22.9641 45.5853 23.3102 46.5501 23.9264 47.2614C24.5425 47.9728 25.3781 48.3724 26.2495 48.3724H47.9214L47.947 40.7864Z" fill="#222A2B"/>
<path d="M57.7967 32.0691H49.9131V57.4666H57.7967V32.0691Z" fill="#222A2B"/>
<path d="M67.6463 32.0691H59.7627V57.4666H67.6463V32.0691Z" fill="#222A2B"/>
<path d="M77.5025 32.0691H69.6189V57.4666H77.5025V32.0691Z" fill="#222A2B"/>
</g>
<g opacity="0.1">
<path d="M26.2495 50.265H47.9214V57.8362H26.2495C25.3781 57.8362 24.5425 57.4366 23.9264 56.7253C23.3102 56.014 22.9641 55.0492 22.9641 54.0432C22.9641 53.0373 23.3102 52.0725 23.9264 51.3612C24.5425 50.6499 25.3781 50.2502 26.2495 50.2502V50.265Z" fill="#263238"/>
<path d="M47.947 40.7864H26.2495C25.3781 40.7864 24.5425 41.186 23.9264 41.8973C23.3102 42.6086 22.9641 43.5734 22.9641 44.5794C22.9641 45.5853 23.3102 46.5501 23.9264 47.2614C24.5425 47.9728 25.3781 48.3724 26.2495 48.3724H47.9214L47.947 40.7864Z" fill="#263238"/>
<path d="M57.7967 32.0691H49.9131V57.4666H57.7967V32.0691Z" fill="#263238"/>
<path d="M67.6463 32.0691H59.7627V57.4666H67.6463V32.0691Z" fill="#263238"/>
<path d="M77.5025 32.0691H69.6189V57.4666H77.5025V32.0691Z" fill="#263238"/>
</g>
<path opacity="0.1" d="M82.2544 58.147H20.3767V62.3762H25.3976V72.8679H28.382V62.3762H72.7889V72.8679H75.7733V62.3762H82.2544V58.147Z" fill="#263238"/>
<path d="M206.528 123.9C206.528 123.9 204.287 126.857 203.006 132.772C201.725 138.687 207.489 143.123 205.568 149.408C203.647 155.693 200.124 158.65 201.085 164.935C202.045 171.22 206.208 171.589 203.006 178.613C199.804 185.637 196.922 188.225 197.883 194.88C198.843 201.534 211.011 210.037 211.011 210.037C211.011 210.037 219.337 199.316 219.657 192.292C219.977 185.268 212.292 180.831 213.573 174.547C214.854 168.262 218.056 163.086 217.736 157.171C217.416 151.256 211.332 146.82 211.332 142.384C211.332 137.948 213.893 135.36 213.893 130.184C213.893 125.009 208.13 120.572 208.13 117.615C208.252 115.333 208.685 113.088 209.41 110.96C209.41 110.96 203.326 115.397 206.528 123.9Z" fill="#222A2B"/>
<path opacity="0.5" d="M206.528 123.9C206.528 123.9 204.287 126.857 203.006 132.772C201.725 138.687 207.489 143.123 205.568 149.408C203.647 155.693 200.124 158.65 201.085 164.935C202.045 171.22 206.208 171.589 203.006 178.613C199.804 185.637 196.922 188.225 197.883 194.88C198.843 201.534 211.011 210.037 211.011 210.037C211.011 210.037 219.337 199.316 219.657 192.292C219.977 185.268 212.292 180.831 213.573 174.547C214.854 168.262 218.056 163.086 217.736 157.171C217.416 151.256 211.332 146.82 211.332 142.384C211.332 137.948 213.893 135.36 213.893 130.184C213.893 125.009 208.13 120.572 208.13 117.615C208.252 115.333 208.685 113.088 209.41 110.96C209.41 110.96 203.326 115.397 206.528 123.9Z" fill="white"/>
<path d="M209.731 207.819L209.09 127.966" stroke="#263238" stroke-linecap="round" stroke-linejoin="round"/>
<path d="M216.192 189.541L209.916 196.78L202.808 189.541" stroke="#263238" stroke-linecap="round" stroke-linejoin="round"/>
<path d="M214.098 157.667L209.5 165.874L205.523 158.391" stroke="#263238" stroke-linecap="round" stroke-linejoin="round"/>
<path d="M206.567 133.519L209.289 137.378L211.588 132.794" stroke="#263238" stroke-linecap="round" stroke-linejoin="round"/>
<path d="M217.736 207.819H201.725V228.521H217.736V207.819Z" fill="#263238"/>
<path d="M139.905 144.646L145.938 227.456C145.954 227.578 145.991 227.695 146.048 227.8C146.105 227.905 146.18 227.994 146.269 228.064C146.357 228.133 146.457 228.181 146.562 228.204C146.667 228.226 146.775 228.224 146.879 228.196C147.06 228.145 147.219 228.02 147.326 227.845C147.433 227.67 147.481 227.455 147.462 227.242L143.357 144.624L139.905 144.646Z" fill="#263238" stroke="#263238" stroke-linecap="round" stroke-linejoin="round"/>
<path d="M180.399 144.646L186.451 227.737C186.468 227.859 186.506 227.975 186.563 228.079C186.62 228.183 186.695 228.273 186.783 228.342C186.872 228.411 186.971 228.459 187.076 228.482C187.181 228.505 187.288 228.503 187.393 228.477C187.574 228.424 187.732 228.298 187.84 228.122C187.947 227.945 187.995 227.73 187.975 227.515L183.857 144.646H180.399Z" fill="#263238" stroke="#263238" stroke-linecap="round" stroke-linejoin="round"/>
<path d="M75.2032 144.646L72.0011 226.717C71.9833 226.932 72.033 227.147 72.1411 227.324C72.2492 227.5 72.4086 227.626 72.5903 227.678C72.6942 227.708 72.8025 227.713 72.9081 227.691C73.0136 227.669 73.1139 227.622 73.2023 227.552C73.2907 227.482 73.3653 227.391 73.421 227.285C73.4766 227.18 73.5122 227.062 73.5253 226.939L78.6487 144.624L75.2032 144.646Z" fill="#263238" stroke="#263238" stroke-linecap="round" stroke-linejoin="round"/>
<path d="M37.8858 144.646L34.6837 226.466C34.6659 226.681 34.7156 226.896 34.8237 227.072C34.9319 227.249 35.0913 227.375 35.2729 227.427C35.3768 227.457 35.4852 227.461 35.5907 227.44C35.6962 227.418 35.7965 227.371 35.8849 227.301C35.9734 227.231 36.0479 227.14 36.1036 227.034C36.1593 226.928 36.1948 226.81 36.2079 226.687L41.2865 144.617L37.8858 144.646Z" fill="#263238" stroke="#263238" stroke-linecap="round" stroke-linejoin="round"/>
<path d="M188.276 140.055H35.6316V147.168H188.276V140.055Z" fill="white" stroke="#263238" stroke-linecap="round" stroke-linejoin="round"/>
<path d="M188.276 140.055H35.6316V142.495H188.276V140.055Z" fill="#263238" stroke="#263238" stroke-linecap="round" stroke-linejoin="round"/>
<path d="M188.276 140.055H134.59V147.168H188.276V140.055Z" fill="#263238" stroke="#263238" stroke-linecap="round" stroke-linejoin="round"/>
<path d="M190.191 137.689H33.7231V140.402H190.191V137.689Z" fill="white" stroke="#263238" stroke-linecap="round" stroke-linejoin="round"/>
<path d="M190.191 137.689H136.831V140.402H190.191V137.689Z" fill="#263238" stroke="#263238" stroke-linecap="round" stroke-linejoin="round"/>
<path d="M120.705 128.24L125.361 137.496H117.337L120.705 128.24Z" fill="#263238" stroke="#263238" stroke-linecap="round" stroke-linejoin="round"/>
<path d="M71.463 137.445H117.337C117.51 137.443 117.68 137.384 117.826 137.274C117.971 137.164 118.086 137.007 118.156 136.824L130.856 103.396C130.923 103.238 130.954 103.062 130.945 102.886C130.936 102.71 130.888 102.54 130.806 102.391C130.724 102.243 130.609 102.121 130.475 102.038C130.34 101.955 130.189 101.914 130.036 101.918H84.169C83.9952 101.916 83.8248 101.973 83.679 102.082C83.5332 102.191 83.4185 102.347 83.3493 102.531L70.6497 135.966C70.5829 136.124 70.5522 136.299 70.5607 136.474C70.5692 136.65 70.6165 136.82 70.698 136.968C70.7796 137.116 70.8928 137.238 71.0267 137.322C71.1606 137.405 71.3108 137.447 71.463 137.445Z" fill="#263238" stroke="#263238" stroke-linecap="round" stroke-linejoin="round"/>
<path d="M74.7679 136.114H114.474C114.635 136.114 114.793 136.061 114.928 135.96C115.064 135.859 115.17 135.714 115.236 135.545L126.866 105.652C126.922 105.505 126.944 105.346 126.933 105.187C126.921 105.028 126.876 104.875 126.8 104.741C126.724 104.608 126.621 104.498 126.5 104.422C126.378 104.346 126.242 104.306 126.104 104.306H86.3979C86.2359 104.305 86.0773 104.359 85.9418 104.462C85.8063 104.565 85.6999 104.711 85.6358 104.883L74.0122 134.768C73.9554 134.914 73.9311 135.073 73.9416 135.232C73.9521 135.392 73.997 135.545 74.0722 135.679C74.1474 135.813 74.2504 135.923 74.372 135.999C74.4935 136.075 74.6296 136.114 74.7679 136.114Z" fill="white" stroke="#263238" stroke-linecap="round" stroke-linejoin="round"/>
<path d="M106.783 119.205C111.063 121.165 114.946 124.125 118.189 127.9L119.188 125.341L119.828 123.759C113.776 122.554 111.675 116.21 105.931 107.367C105.146 106.167 104.196 105.123 103.119 104.277H86.3979C86.2368 104.278 86.0792 104.332 85.9433 104.432C85.8066 104.534 85.6995 104.681 85.6358 104.853L81.313 115.944C93.3337 121.792 95.1653 113.866 106.783 119.205Z" fill="#222A2B" stroke="#263238" stroke-linecap="round" stroke-linejoin="round"/>
<path d="M105.61 124.986C96.2346 123.973 77.7776 132.425 77.7776 132.425L76.0676 136.121H84.835C91.4442 133.164 99.347 130.206 104.15 130.406C109.197 130.591 110.26 133.6 110.414 136.121H111.835C112.553 132.033 112.066 125.689 105.61 124.986Z" fill="#222A2B" stroke="#263238" stroke-linecap="round" stroke-linejoin="round"/>
<path d="M124.516 111.677L125.797 108.387C125.118 106.997 124.337 105.563 123.626 104.306H118.323C119.841 106.25 122.454 109.504 124.516 111.677Z" fill="#222A2B" stroke="#263238" stroke-linecap="round" stroke-linejoin="round"/>
<path d="M172.099 137.903H184.882V134.118H172.099V137.903Z" fill="#263238"/>
<path d="M178.817 135.412C179.143 135.412 179.457 135.27 179.695 135.013C179.933 134.756 180.077 134.404 180.098 134.029L182.231 98.0805C182.242 97.8863 182.22 97.6914 182.166 97.507C182.112 97.3226 182.028 97.1522 181.917 97.0056C181.806 96.859 181.671 96.7391 181.52 96.6527C181.369 96.5662 181.204 96.515 181.036 96.5019C180.868 96.4888 180.699 96.5141 180.54 96.5763C180.38 96.6385 180.232 96.7364 180.105 96.8644C179.978 96.9925 179.874 97.1481 179.8 97.3225C179.725 97.4969 179.68 97.6866 179.669 97.8808L177.536 133.829C177.513 134.22 177.626 134.606 177.85 134.901C178.073 135.197 178.389 135.378 178.728 135.404L178.817 135.412Z" fill="#263238"/>
<path d="M181.11 99.8401C181.38 99.8407 181.643 99.7427 181.862 99.5603C182.081 99.3779 182.244 99.1203 182.329 98.8243C182.413 98.5284 182.414 98.2091 182.332 97.9122C182.25 97.6153 182.089 97.3559 181.872 97.171L160.866 80.1062C160.803 80.024 160.725 79.959 160.637 79.916C160.55 79.8731 160.455 79.8532 160.36 79.8578C160.265 79.8625 160.172 79.8916 160.087 79.9429C160.003 79.9943 159.93 80.0666 159.873 80.1547C159.816 80.2429 159.777 80.3445 159.759 80.4523C159.74 80.56 159.743 80.6712 159.766 80.7778C159.789 80.8843 159.833 80.9835 159.893 81.0681C159.954 81.1527 160.03 81.2207 160.117 81.267L180.341 99.5444C180.563 99.7364 180.833 99.8401 181.11 99.8401Z" fill="#263238"/>
<path d="M181.11 100.439C182.196 100.439 183.076 99.4229 183.076 98.1693C183.076 96.9157 182.196 95.8994 181.11 95.8994C180.024 95.8994 179.144 96.9157 179.144 98.1693C179.144 99.4229 180.024 100.439 181.11 100.439Z" fill="#263238"/>
<path d="M160.13 83.7883C161.216 83.7883 162.096 82.772 162.096 81.5184C162.096 80.2648 161.216 79.2485 160.13 79.2485C159.044 79.2485 158.164 80.2648 158.164 81.5184C158.164 82.772 159.044 83.7883 160.13 83.7883Z" fill="#263238"/>
<path d="M151.772 84.6311L159.188 91.4999L161.673 84.1062C161.889 83.464 161.922 82.759 161.766 82.0939C161.611 81.4289 161.275 80.8386 160.809 80.4093C160.345 79.9781 159.775 79.7291 159.18 79.6985C158.586 79.6679 157.999 79.8574 157.504 80.2392L151.772 84.6311Z" fill="#263238"/>
<path d="M146.233 137.445H175.538C175.649 137.445 175.758 137.408 175.851 137.338C175.944 137.269 176.018 137.17 176.064 137.053L184.178 115.693C184.215 115.592 184.229 115.482 184.221 115.374C184.212 115.265 184.181 115.16 184.129 115.069C184.077 114.977 184.006 114.902 183.923 114.85C183.84 114.797 183.747 114.769 183.653 114.768H154.334C154.224 114.769 154.116 114.806 154.024 114.876C153.932 114.945 153.86 115.044 153.815 115.16L145.701 136.521C145.662 136.622 145.646 136.733 145.654 136.843C145.663 136.953 145.695 137.059 145.747 137.151C145.8 137.243 145.873 137.318 145.957 137.37C146.042 137.421 146.137 137.447 146.233 137.445Z" fill="white" stroke="#263238" stroke-linecap="round" stroke-linejoin="round"/>
<path d="M148.98 135.781H173.956C174.052 135.783 174.146 135.751 174.226 135.69C174.305 135.63 174.368 135.543 174.405 135.441L181.328 117.216C181.359 117.131 181.372 117.038 181.365 116.946C181.359 116.854 181.332 116.765 181.288 116.687C181.245 116.61 181.185 116.546 181.115 116.501C181.045 116.457 180.966 116.433 180.886 116.432H155.903C155.809 116.433 155.716 116.465 155.637 116.523C155.558 116.582 155.495 116.666 155.455 116.765L148.532 134.99C148.5 135.076 148.487 135.17 148.495 135.263C148.502 135.356 148.529 135.446 148.573 135.524C148.617 135.602 148.678 135.666 148.749 135.711C148.82 135.756 148.899 135.78 148.98 135.781Z" fill="white" stroke="#263238" stroke-linecap="round" stroke-linejoin="round"/>
<path d="M168.468 125.364C171.3 126.594 173.884 128.478 176.063 130.901L177.133 128.262C173.105 127.523 171.709 123.456 167.879 117.822C167.528 117.309 167.128 116.842 166.688 116.432H155.903C155.809 116.433 155.716 116.465 155.637 116.523C155.558 116.582 155.495 116.666 155.455 116.765L152.771 123.833C159.662 126.45 161.161 122.162 168.468 125.364Z" fill="#222A2B" stroke="#263238" stroke-linecap="round" stroke-linejoin="round"/>
<path d="M167.687 129.023C161.443 128.38 149.114 133.763 149.114 133.763L148.474 135.049C148.448 135.133 148.44 135.223 148.451 135.311C148.462 135.399 148.491 135.483 148.535 135.555C148.58 135.628 148.639 135.687 148.707 135.727C148.776 135.768 148.852 135.789 148.929 135.789H154.596C158.823 134.022 163.652 132.373 166.656 132.484C169.787 132.595 170.62 134.258 170.799 135.789H171.83C172.266 133.179 171.817 129.452 167.687 129.023Z" fill="#222A2B" stroke="#263238" stroke-linecap="round" stroke-linejoin="round"/>
<path d="M180.143 120.41L180.988 118.192C180.674 117.6 180.348 117.001 180.015 116.439H176.621C177.613 117.63 178.99 119.204 180.143 120.41Z" fill="#222A2B" stroke="#263238" stroke-linecap="round" stroke-linejoin="round"/>
<path d="M175.948 136.025H131.919V137.689H175.948V136.025Z" fill="white" stroke="#263238" stroke-linecap="round" stroke-linejoin="round"/>
<path d="M175.948 136.025H154.603V137.689H175.948V136.025Z" fill="white" stroke="#263238" stroke-linecap="round" stroke-linejoin="round"/>
<path d="M136.024 124.476H128.256V137.726H136.024V124.476Z" fill="white" stroke="#263238" stroke-linecap="round" stroke-linejoin="round"/>
<path d="M135.672 135.922H134.865C134.695 135.922 134.532 135.844 134.412 135.705C134.292 135.567 134.225 135.379 134.225 135.182C134.225 134.986 134.292 134.798 134.412 134.66C134.532 134.521 134.695 134.443 134.865 134.443H135.672C135.994 134.441 136.303 134.292 136.531 134.029C136.758 133.766 136.887 133.41 136.889 133.038V129.829C136.889 129.457 136.761 129.099 136.532 128.836C136.304 128.573 135.995 128.425 135.672 128.425H134.635C134.465 128.425 134.302 128.347 134.182 128.208C134.062 128.069 133.994 127.881 133.994 127.685C133.994 127.489 134.062 127.301 134.182 127.162C134.302 127.024 134.465 126.946 134.635 126.946H135.672C136.334 126.948 136.968 127.252 137.436 127.793C137.904 128.333 138.168 129.065 138.17 129.829V133.038C138.168 133.802 137.904 134.535 137.436 135.075C136.968 135.615 136.334 135.92 135.672 135.922Z" fill="white" stroke="#263238" stroke-linecap="round" stroke-linejoin="round"/>
<path d="M83.074 68.4022C83.074 68.4022 84.8288 74.6943 84.8288 75.9143C84.8162 76.7973 84.7585 77.6787 84.6558 78.5538L86.2121 81.3339C86.2608 81.4217 86.2936 81.52 86.3087 81.6228C86.3238 81.7256 86.3208 81.8308 86.2999 81.9323C86.279 82.0337 86.2406 82.1293 86.187 82.2132C86.1334 82.2971 86.0657 82.3677 85.9879 82.4208L83.5991 84.04C83.5991 84.04 83.2469 90.5391 82.8947 91.3524C82.5424 92.1658 76.5609 91.9661 76.5609 91.9661L74.6396 96.2323L64.6106 91.7591L67.2363 83.4337L66.7048 70.8643C66.7048 70.8643 72.8656 64.5427 83.074 68.4022Z" fill="white" stroke="#263238" stroke-linecap="round" stroke-linejoin="round"/>
<path d="M76.0359 84.0398L77.4384 84.4465C77.3526 85.2032 77.4021 85.9722 77.5838 86.706C77.7656 87.4398 78.0757 88.1227 78.4951 88.7126" fill="white"/>
<path d="M76.0359 84.0398L77.4384 84.4465C77.3526 85.2032 77.4021 85.9722 77.5838 86.706C77.7656 87.4398 78.0757 88.1227 78.4951 88.7126" stroke="#263238" stroke-linecap="round" stroke-linejoin="round"/>
<path d="M77.6562 79.6924L87.5636 76.8606" stroke="#263238" stroke-linecap="round" stroke-linejoin="round"/>
<path d="M85.0146 76.6313L87.2689 76.7423C87.2689 76.7423 88.0567 79.6998 85.6999 80.0325" stroke="#263238" stroke-linecap="round" stroke-linejoin="round"/>
<path d="M71.4569 63.7514C71.4569 63.7514 67.6143 62.3244 65.6482 68.4242C63.6821 74.5241 67.2365 82.4724 67.2365 83.4557C67.2365 84.4391 70.2272 85.282 72.5136 85.282C73.7724 85.3381 75.0116 84.9088 76.0359 84.062C76.0359 84.062 75.1521 80.0029 75.8566 79.1895C76.561 78.3762 78.3222 80.2025 78.3222 80.2025C78.8746 80.1014 79.409 79.8966 79.904 79.5962C80.4292 79.1895 83.0741 77.5629 82.1904 75.7367C81.3066 73.9104 79.5518 72.2838 80.9607 71.0638C82.3697 69.8438 86.0841 69.6368 86.2378 65.7773C86.3915 61.9177 84.3166 61.1118 82.1904 61.5111C80.0641 61.9103 80.7814 58.0582 76.7339 58.6719C72.6865 59.2856 70.7524 61.8955 71.4569 63.7514Z" fill="#263238" stroke="#263238" stroke-linecap="round" stroke-linejoin="round"/>
<path d="M72.0716 77.563C71.7909 78.1738 71.5758 78.8218 71.4312 79.4928" stroke="white" stroke-width="0.5" stroke-linecap="round" stroke-linejoin="round"/>
<path d="M81.0889 70.3022C81.0889 70.3022 79.8657 71.5444 76.0359 73.3115C74.6826 73.9321 73.5176 74.9994 72.6865 76.3799" stroke="white" stroke-width="0.5" stroke-linecap="round" stroke-linejoin="round"/>
<path d="M80.7814 73.6589C80.7814 73.6589 76.3433 77.0231 74.3772 77.7255" stroke="white" stroke-width="0.5" stroke-linecap="round" stroke-linejoin="round"/>
<path d="M112.707 105.696C114.613 109.139 116.883 112.296 119.463 115.094C119.463 115.094 117.01 108.787 113.373 105.06C113.046 104.735 112.476 105.275 112.707 105.696Z" fill="#263238" stroke="#263238" stroke-linecap="round" stroke-linejoin="round"/>
<path d="M98.5658 130.11L111.534 118.835C111.534 118.835 111.534 113.659 112.175 112.55C112.815 111.441 118.099 109.593 118.099 109.593C118.099 109.593 119.54 107.559 120.34 109.593C120.569 110.188 120.66 110.842 120.604 111.49C120.548 112.138 120.346 112.758 120.02 113.29C120.103 114.767 120.103 116.249 120.02 117.726C119.86 118.835 114.256 121.608 114.256 121.608C114.256 121.608 106.571 134.731 102.729 138.428C98.886 142.125 98.0855 142.865 96.4844 143.604C94.8834 144.343 92.0015 138.983 92.0015 138.983L98.5658 130.11Z" fill="white" stroke="#263238" stroke-linecap="round" stroke-linejoin="round"/>
<path d="M75.0303 216.632C75.0303 216.632 84.1563 223.286 85.7574 223.286C87.3584 223.286 88.159 224.95 87.3584 225.135C86.5579 225.32 81.5946 225.505 78.2324 225.689C74.8702 225.874 72.6287 225.505 70.7074 225.505C68.7862 225.505 66.5447 225.689 65.584 225.135C64.6234 224.58 66.2245 218.296 66.2245 217.187C66.2245 216.078 73.9095 215.893 75.0303 216.632Z" fill="#263238" stroke="#263238" stroke-linecap="round" stroke-linejoin="round"/>
<path d="M86.8013 223.553C83.2597 224.906 77.5151 224.019 74.0697 223.656C71.3415 223.368 67.089 223.301 65.3023 223.287C65.2318 224.24 65.3023 224.958 65.5841 225.135C66.5447 225.69 68.7862 225.505 70.7074 225.505C72.6287 225.505 74.8702 225.874 78.2324 225.69C81.5946 225.505 86.5579 225.32 87.3584 225.135C87.954 224.995 87.6594 224.033 86.8013 223.553Z" fill="white" stroke="#263238" stroke-linecap="round" stroke-linejoin="round"/>
<path d="M82.2351 170.961L75.0367 212.625L76.5353 216.95C75.4603 218.751 73.8367 220.019 71.9883 220.499C69.9305 220.962 67.8406 221.21 65.7442 221.238C65.7442 221.238 64.9437 216.617 65.424 216.063C65.9043 215.508 66.0644 213.29 66.0644 213.29L70.2272 171.331L82.2351 170.961Z" fill="#222A2B" stroke="#263238" stroke-linecap="round" stroke-linejoin="round"/>
<path d="M104.17 215.22C104.17 215.22 109.773 220.58 112.335 221.505C114.897 222.429 117.619 223.353 117.619 224.277C117.619 225.201 111.534 226.126 106.891 225.571C102.248 225.017 95.2037 222.614 93.6026 222.614C92.0016 222.614 92.3218 217.808 92.3218 217.068C92.3218 216.329 100.167 210.414 104.17 215.22Z" fill="#263238" stroke="#263238" stroke-linecap="round" stroke-linejoin="round"/>
<path d="M117.618 224.277C117.618 223.944 117.26 223.612 116.69 223.279C112.108 223.993 107.461 223.956 102.889 223.168C99.377 222.591 95.8929 221.808 92.4497 220.824C92.6162 221.815 92.9492 222.613 93.6025 222.613C95.2035 222.613 102.248 225.016 106.891 225.571C111.534 226.126 117.618 225.201 117.618 224.277Z" fill="white" stroke="#263238" stroke-linecap="round" stroke-linejoin="round"/>
<path d="M76.3111 152.292C81.113 151.866 85.9397 151.99 90.7206 152.661C98.886 153.77 110.894 155.064 111.214 157.467C111.534 159.87 103.286 209.889 103.286 211.183C103.286 212.477 104.567 213.771 104.887 214.51C105.089 215.034 105.198 215.6 105.207 216.174C105.207 216.174 101.288 221.054 98.2455 222.348C95.2035 223.641 92.6482 222.436 92.0078 222.436C91.3674 222.436 91.3674 217.445 91.8477 215.042C92.328 212.64 93.1286 206.54 93.2887 205.985C93.4488 205.431 96.0041 169.852 96.0041 169.852C96.0041 169.852 78.3924 174.288 64.143 172.44C49.8936 170.591 48.4527 168.003 47.6521 164.122C46.8516 160.24 48.4527 152.477 48.4527 152.477L76.3111 152.292Z" fill="#222A2B" stroke="#263238" stroke-linecap="round" stroke-linejoin="round"/>
<path d="M74.5051 164.262C74.1829 164.803 73.8231 165.312 73.4292 165.785" stroke="#263238" stroke-linecap="round" stroke-linejoin="round"/>
<path d="M78.8728 154.325C77.9478 156.988 76.8783 159.581 75.6707 162.088" stroke="#263238" stroke-linecap="round" stroke-linejoin="round"/>
<path d="M76.9517 156.173C75.0235 159.864 72.0984 162.722 68.6262 164.306" stroke="#263238" stroke-linecap="round" stroke-linejoin="round"/>
<path d="M107.083 166.355C107.621 166.111 108.153 165.859 108.653 165.615L107.083 166.355Z" fill="white"/>
<path d="M107.083 166.355C107.621 166.111 108.153 165.859 108.653 165.615" stroke="#263238" stroke-linecap="round" stroke-linejoin="round"/>
<path d="M96.0042 169.852C99.0708 169.157 102.101 168.261 105.079 167.168L96.0042 169.852Z" fill="white"/>
<path d="M96.0042 169.852C99.0708 169.157 102.101 168.261 105.079 167.168" stroke="#263238" stroke-linecap="round" stroke-linejoin="round"/>
<path d="M62.8623 90.7386C62.8623 90.7386 50.374 97.5778 48.6129 98.8717C46.8517 100.166 45.731 116.247 45.731 119.02C45.731 121.792 47.4921 148.964 47.9724 153.585C48.4528 158.207 63.8229 161.349 68.9463 159.685C74.0697 158.022 79.033 153.77 79.033 152.292C79.033 150.813 78.5526 138.243 78.8728 135.84C79.1931 133.437 82.075 123.271 82.075 123.271L87.5186 141.201C89.8036 140.497 92.0493 139.633 94.243 138.613C98.8861 136.395 100.007 129.001 100.007 129.001C100.007 129.001 94.8834 118.65 93.4425 113.474C92.0015 108.299 91.3611 104.417 90.7207 103.493C90.0802 102.569 75.6707 94.8051 73.109 92.7718C71.6643 91.5164 69.9809 90.6771 68.1988 90.3234C66.4167 89.9698 64.5872 90.1121 62.8623 90.7386Z" fill="#263238" stroke="#263238" stroke-linecap="round" stroke-linejoin="round"/>
<path d="M82.0751 123.271L77.9124 116.247" stroke="white" stroke-width="0.75" stroke-linecap="round" stroke-linejoin="round"/>
<path d="M81.3963 122.273L74.0698 118.095" stroke="white" stroke-width="0.75" stroke-linecap="round" stroke-linejoin="round"/>
<path d="M59.6731 175.264L66.0773 227.76C66.0914 227.882 66.1276 227.999 66.1835 228.105C66.2395 228.21 66.314 228.3 66.4021 228.37C66.4903 228.439 66.5902 228.487 66.6953 228.509C66.8005 228.532 66.9085 228.528 67.0123 228.499C67.1918 228.448 67.3494 228.325 67.4565 228.151C67.5635 227.977 67.6127 227.765 67.5951 227.553L63.1122 174.406L59.6731 175.264Z" fill="#263238" stroke="#263238" stroke-linecap="round" stroke-linejoin="round"/>
<path d="M41.2992 175.693L30.6106 227.25C30.5854 227.369 30.5823 227.494 30.6016 227.616C30.6209 227.737 30.6621 227.852 30.7225 227.954C30.7829 228.056 30.8611 228.142 30.9522 228.206C31.0432 228.271 31.145 228.313 31.251 228.329C31.4346 228.359 31.6213 228.311 31.7767 228.194C31.9321 228.077 32.0456 227.899 32.0963 227.693L44.5077 177.667L41.2992 175.693Z" fill="#263238" stroke="#263238" stroke-linecap="round" stroke-linejoin="round"/>
<path d="M60.7106 175.057L53.9093 227.479C53.8931 227.6 53.899 227.725 53.9267 227.844C53.9544 227.963 54.0032 228.074 54.0701 228.17C54.1369 228.266 54.2204 228.344 54.3151 228.401C54.4098 228.458 54.5137 228.491 54.6202 228.499C54.8083 228.511 54.9936 228.442 55.1402 228.305C55.2869 228.169 55.3845 227.974 55.4143 227.76L64.0344 176.706L60.7106 175.057Z" fill="#263238" stroke="#263238" stroke-linecap="round" stroke-linejoin="round"/>
<path d="M79.0972 175.264L85.5014 227.76C85.5164 227.881 85.5532 227.998 85.6094 228.103C85.6656 228.207 85.7401 228.297 85.828 228.367C85.9159 228.436 86.0154 228.484 86.1202 228.507C86.2249 228.53 86.3326 228.527 86.4364 228.499C86.6164 228.449 86.7747 228.325 86.8828 228.152C86.9909 227.978 87.0415 227.766 87.0256 227.553L82.5426 174.406L79.0972 175.264Z" fill="#263238" stroke="#263238" stroke-linecap="round" stroke-linejoin="round"/>
<path d="M31.2639 138.48C31.2639 138.48 29.3427 129.112 29.5604 123.937C29.7782 118.761 33.8256 112.107 45.1419 112.846C56.4582 113.585 62.4333 126.155 61.5816 136.262C60.7298 146.369 61.5816 166.081 67.5567 170.273C73.5319 174.465 86.9807 171.508 86.9807 171.508C86.9807 171.508 88.902 171.996 87.4098 173.726C85.9176 175.456 73.5319 177.911 67.3454 178.902C62.6191 179.641 50.6944 179.257 45.302 179.027C42.5014 178.947 39.8413 177.594 37.8987 175.264C37.1162 174.296 36.4681 173.193 35.9775 171.996C32.8266 164.395 31.2639 138.48 31.2639 138.48Z" fill="white"/>
<mask id="mask0_161_2803" style="mask-type:luminance" maskUnits="userSpaceOnUse" x="29" y="112" width="59" height="68">
<path d="M31.2639 138.48C31.2639 138.48 29.3427 129.112 29.5604 123.937C29.7782 118.761 33.8256 112.107 45.1419 112.846C56.4582 113.585 62.4333 126.155 61.5816 136.262C60.7298 146.369 61.5816 166.081 67.5567 170.273C73.5319 174.465 86.9807 171.508 86.9807 171.508C86.9807 171.508 88.902 171.996 87.4098 173.726C85.9176 175.456 73.5319 177.911 67.3454 178.902C62.6191 179.641 50.6944 179.257 45.302 179.027C42.5014 178.947 39.8413 177.594 37.8987 175.264C37.1162 174.296 36.4681 173.193 35.9775 171.996C32.8266 164.395 31.2639 138.48 31.2639 138.48Z" fill="white"/>
</mask>
<g mask="url(#mask0_161_2803)">
<path d="M67.3454 178.902C68.8568 178.658 70.746 178.325 72.7569 177.941C70.3369 177.796 67.9622 177.127 65.7571 175.966C59.0775 171.929 58.1233 152.935 59.0775 143.197C60.0317 133.46 53.3457 121.356 40.691 120.639C35.9839 120.373 32.3655 121.097 29.7397 122.369C29.6404 122.885 29.5804 123.409 29.5604 123.937C29.3427 129.112 31.2639 138.48 31.2639 138.48C31.2639 138.48 32.8266 164.395 35.9646 171.996C36.4553 173.193 37.1034 174.296 37.8859 175.264C39.8285 177.594 42.4886 178.947 45.2892 179.027C50.6944 179.257 62.6191 179.649 67.3454 178.902Z" fill="#222A2B"/>
<path opacity="0.5" d="M67.3454 178.902C68.8568 178.658 70.746 178.325 72.7569 177.941C70.3369 177.796 67.9622 177.127 65.7571 175.966C59.0775 171.929 58.1233 152.935 59.0775 143.197C60.0317 133.46 53.3457 121.356 40.691 120.639C35.9839 120.373 32.3655 121.097 29.7397 122.369C29.6404 122.885 29.5804 123.409 29.5604 123.937C29.3427 129.112 31.2639 138.48 31.2639 138.48C31.2639 138.48 32.8266 164.395 35.9646 171.996C36.4553 173.193 37.1034 174.296 37.8859 175.264C39.8285 177.594 42.4886 178.947 45.2892 179.027C50.6944 179.257 62.6191 179.649 67.3454 178.902Z" fill="white"/>
</g>
<path d="M31.2639 138.48C31.2639 138.48 29.3427 129.112 29.5604 123.937C29.7782 118.761 33.8256 112.107 45.1419 112.846C56.4582 113.585 62.4333 126.155 61.5816 136.262C60.7298 146.369 61.5816 166.081 67.5567 170.273C73.5319 174.465 86.9807 171.508 86.9807 171.508C86.9807 171.508 88.902 171.996 87.4098 173.726C85.9176 175.456 73.5319 177.911 67.3454 178.902C62.6191 179.641 50.6944 179.257 45.302 179.027C42.5014 178.947 39.8413 177.594 37.8987 175.264C37.1162 174.296 36.4681 173.193 35.9775 171.996C32.8266 164.395 31.2639 138.48 31.2639 138.48Z" stroke="#263238" stroke-linecap="round" stroke-linejoin="round"/>
<path d="M230 225.963H9.32935V230H230V225.963Z" fill="#566871"/>
</svg>
