<svg width="26" height="26" viewBox="0 0 26 26" fill="none" xmlns="http://www.w3.org/2000/svg">
<path d="M13.0002 7.93994C7.76515 7.93994 3.66016 10.1649 3.66016 12.9999C3.66016 15.8349 7.76515 18.0599 13.0002 18.0599C18.2352 18.0599 22.3401 15.8349 22.3401 12.9999C22.3401 10.1649 18.2402 7.93994 13.0002 7.93994ZM12.0302 9.59995H13.0302L12.7052 11.1549H13.6201C14.0382 11.1036 14.4607 11.2048 14.8102 11.4399C14.924 11.5708 15.0018 11.7291 15.036 11.8991C15.0702 12.0692 15.0596 12.2452 15.0052 12.4099L14.6001 14.2699H13.5602L13.9352 12.5499C13.9641 12.4681 13.9747 12.3808 13.966 12.2944C13.9574 12.2079 13.9298 12.1245 13.8851 12.0499C13.7407 11.9454 13.5622 11.8989 13.3851 11.9199H12.5701L12.0701 14.2549H11.0701L12.0302 9.59995ZM7.53015 11.1549H9.60515C9.81706 11.1288 10.0321 11.1568 10.2303 11.2362C10.4285 11.3156 10.6034 11.4439 10.7387 11.6091C10.8739 11.7743 10.9652 11.971 11.0039 12.181C11.0426 12.391 11.0276 12.6073 10.9601 12.8099C10.6901 13.9549 9.96015 14.2699 8.62015 14.2699H7.97514L7.81015 15.4399H6.78015L7.53015 11.1549ZM15.7052 11.1549H17.8102C18.0221 11.1288 18.2371 11.1568 18.4353 11.2362C18.6336 11.3156 18.8084 11.4439 18.9437 11.6091C19.0789 11.7743 19.1702 11.971 19.2089 12.181C19.2476 12.391 19.2326 12.6073 19.1651 12.8099C18.8951 13.9549 18.1651 14.2699 16.8201 14.2699H16.1801L15.9751 15.4349H14.9451L15.7052 11.1549ZM8.43515 11.9399L8.14015 13.4949H8.81015C9.38515 13.4949 9.92015 13.4299 10.0101 12.5699C10.0401 12.2399 9.90514 11.9399 9.24014 11.9399H8.43515ZM16.6102 11.9399L16.3152 13.4949H16.9801C17.5551 13.4949 18.0901 13.4299 18.1801 12.5699C18.2151 12.2399 18.0752 11.9399 17.4102 11.9399H16.6102Z" fill="#EDEDED"/>
<path d="M13 25C19.6274 25 25 19.6274 25 13C25 6.37258 19.6274 1 13 1C6.37258 1 1 6.37258 1 13C1 19.6274 6.37258 25 13 25Z" stroke="white" stroke-miterlimit="10"/>
</svg>
