<svg width="26" height="26" viewBox="0 0 26 26" fill="none" xmlns="http://www.w3.org/2000/svg">
<path d="M12.85 6C10.2 6 9.64999 7.365 9.64999 8.16V9.66H12.695V9.965H8.16C7.16 9.965 6 10.76 6 13.01C6 15.26 7.155 16.055 8.16 16.055H9.955V14.225C9.95763 13.9027 10.0872 13.5944 10.3155 13.367C10.5439 13.1396 10.8527 13.0113 11.175 13.01H14.825C15.0677 13.01 15.3004 12.9136 15.472 12.742C15.6436 12.5704 15.74 12.3377 15.74 12.095V8.17C15.74 7.095 14.735 6 12.85 6ZM11.56 7.5C11.7209 7.50132 11.8748 7.56617 11.9881 7.68042C12.1014 7.79467 12.165 7.94908 12.165 8.11C12.165 8.27092 12.1014 8.42533 11.9881 8.53958C11.8748 8.65384 11.7209 8.71868 11.56 8.72C11.3982 8.72 11.2431 8.65573 11.1287 8.54134C11.0143 8.42694 10.95 8.27178 10.95 8.11C10.9552 7.95171 11.0218 7.80165 11.1356 7.69154C11.2494 7.58144 11.4016 7.51992 11.56 7.52V7.5ZM16.06 9.935V12.065C16.0587 12.3882 15.9297 12.6977 15.7012 12.9262C15.4727 13.1547 15.1632 13.2837 14.84 13.285H11.19C10.9482 13.285 10.7162 13.3807 10.5448 13.5512C10.3733 13.7217 10.2763 13.9532 10.275 14.195V17.82C10.275 18.885 11.275 19.98 13.165 19.98C15.815 19.98 16.365 18.615 16.365 17.82V16.32H13.32V16.015H17.855C18.855 16.015 20.015 15.22 20.015 12.97C20.015 10.72 18.86 9.925 17.855 9.925L16.06 9.935ZM14.625 17.26C14.7868 17.26 14.9419 17.3243 15.0563 17.4387C15.1707 17.5531 15.235 17.7082 15.235 17.87C15.235 18.0318 15.1707 18.1869 15.0563 18.3013C14.9419 18.4157 14.7868 18.48 14.625 18.48C14.4641 18.4787 14.3102 18.4138 14.1969 18.2996C14.0836 18.1853 14.02 18.0309 14.02 17.87C14.02 17.7091 14.0836 17.5547 14.1969 17.4404C14.3102 17.3262 14.4641 17.2613 14.625 17.26Z" fill="#EDEDED"/>
<path d="M13 25C19.6274 25 25 19.6274 25 13C25 6.37258 19.6274 1 13 1C6.37258 1 1 6.37258 1 13C1 19.6274 6.37258 25 13 25Z" stroke="white" stroke-miterlimit="10"/>
</svg>
