<svg width="26" height="26" viewBox="0 0 26 26" fill="none" xmlns="http://www.w3.org/2000/svg">
<path d="M6.91508 12.5851L8.31009 10.1901C8.32265 10.167 8.33964 10.1466 8.36008 10.1301L10.8601 7.79012C10.8875 7.76523 10.9199 7.74647 10.9551 7.73511L13.1101 6.94511L14.9251 8.21011L14.0201 11.0851L10.6301 14.2351L7.86509 14.8551L6.91508 12.5851ZM8.06509 15.3801L9.35509 19.0651L10.4151 14.8501L8.06509 15.3801ZM17.8001 6.98511L15.7551 8.12511L19.1451 10.5851C19.234 10.2189 19.2925 9.84596 19.3201 9.47011C19.348 8.92989 19.2233 8.39272 18.9601 7.92012C18.6944 7.48038 18.2845 7.1464 17.8001 6.97511C17.8001 6.97511 17.8001 6.98511 17.8001 6.98511ZM15.5601 16.0151L14.1601 11.7301L11.3001 14.3751L15.5601 16.0151ZM14.6701 11.5151L16.0651 15.7701C17.286 14.5189 18.2508 13.0413 18.9051 11.4201L14.6701 11.5151ZM18.6001 10.8701L15.4201 8.56012L14.6651 10.9601L18.6001 10.8701ZM7.66009 15.8401L6.71509 17.4601C6.8058 17.9813 7.07192 18.4558 7.46933 18.8051C7.86673 19.1543 8.37155 19.3572 8.90009 19.3801L7.66009 15.8401ZM7.52009 15.1601L6.72509 13.2751V16.5251L7.52009 15.1601ZM17.0951 6.62012H13.8001L15.2551 7.62012L17.0801 6.62012H17.0951ZM11.0051 14.8501L9.87508 19.3501C12.1751 19.0101 13.8751 17.7751 15.3001 16.5101L11.0051 14.8501ZM18.3701 18.7951C18.3369 18.796 18.304 18.7902 18.2731 18.7782C18.2422 18.7662 18.2139 18.7481 18.1901 18.7251L15.9051 16.7001C14.8463 17.7272 13.6248 18.572 12.2901 19.2001L18.3751 18.7851C18.408 18.7924 18.4422 18.7924 18.4751 18.7851C18.4349 18.7986 18.3919 18.802 18.3501 18.7951H18.3701ZM16.3051 16.2951L18.5551 18.2951C18.5988 18.336 18.6271 18.3908 18.6351 18.4501L19.1001 12.3601C18.3864 13.8209 17.4408 15.1566 16.3001 16.3151L16.3051 16.2951Z" fill="white"/>
<path d="M13 25C19.6274 25 25 19.6274 25 13C25 6.37258 19.6274 1 13 1C6.37258 1 1 6.37258 1 13C1 19.6274 6.37258 25 13 25Z" stroke="white" stroke-miterlimit="10"/>
</svg>
