<svg width="60" height="60" viewBox="0 0 60 60" fill="none" xmlns="http://www.w3.org/2000/svg">
<path d="M34.8889 41.16C34.8889 43.86 32.6997 46.05 30.0007 46.05C28.0815 46.05 26.4321 44.94 25.6524 43.35L32.1899 36.81C33.7793 37.59 34.8889 39.24 34.8889 41.16ZM59.3028 0.69C58.4031 -0.21 56.9336 -0.21 56.034 0.69L47.6071 9.12C45.298 3.06 39.3902 0 30.0037 0C13.1201 0 11.1708 10.74 11.1708 18.84V22.59H11.2608C2.77396 23.61 0.0149943 27.84 0.0149943 38.37V43.95C0.0149943 48.75 0.584781 52.23 2.02424 54.72L0.674747 56.07C-0.224916 56.97 -0.224916 58.44 0.674747 59.34C1.15457 59.76 1.72435 60 2.32413 60C2.9239 60 3.49369 59.76 3.94352 59.31L59.3028 3.93C60.2324 3.03 60.2324 1.59 59.3028 0.69ZM16.059 22.32H15.3692V18.84C15.3692 10.05 17.8583 4.2 30.0037 4.2C40.1999 4.2 43.4087 8.1 44.3084 12.45L34.4421 22.32H16.059Z" fill="#222A2B"/>
<path d="M59.9877 38.367V43.947C59.9877 56.247 56.2391 59.997 43.9437 59.997H16.2341C13.5651 59.997 12.2456 56.757 14.1349 54.867L22.5917 46.407C22.8016 46.707 23.0415 46.977 23.2815 47.247C25.3807 49.527 28.4995 50.727 31.9482 50.007C32.2181 49.947 32.488 49.887 32.7579 49.767C33.0278 49.707 33.2677 49.617 33.5076 49.497C34.1074 49.287 34.6772 48.957 35.217 48.567C35.4269 48.447 35.6068 48.297 35.7568 48.147C36.2066 47.787 36.6265 47.367 36.9863 46.917C37.1363 46.767 37.2862 46.587 37.4062 46.377C37.796 45.837 38.1259 45.267 38.3358 44.667C38.4558 44.427 38.5457 44.187 38.6057 43.917C38.7257 43.647 38.7856 43.377 38.8456 43.107C39.5653 39.657 38.3658 36.537 36.0867 34.437C35.8467 34.197 35.5469 33.957 35.247 33.747L44.6035 24.387C44.7534 24.237 44.8734 24.117 45.0233 23.997C46.2229 23.007 47.7523 22.527 49.2817 22.647C49.5516 22.677 49.8515 22.707 50.1214 22.767C51.0996 22.9394 52.0623 23.1902 53.0003 23.517C53.87 23.847 54.6197 24.237 55.3094 24.687C55.9992 25.137 56.569 25.677 57.1088 26.307C57.3787 26.637 57.6486 26.997 57.8585 27.387C58.0684 27.717 58.2483 28.077 58.4283 28.467C58.6082 28.857 58.7582 29.277 58.9081 29.697C59.088 30.207 59.238 30.777 59.3579 31.377C59.4779 31.797 59.5379 32.247 59.6278 32.727C59.6878 33.177 59.7478 33.657 59.8078 34.167C59.9277 35.427 59.9877 36.837 59.9877 38.367Z" fill="#222A2B"/>
</svg>
