<svg width="26" height="26" viewBox="0 0 26 26" fill="none" xmlns="http://www.w3.org/2000/svg">
<path fill-rule="evenodd" clip-rule="evenodd" d="M12.645 6.16489C12.7532 6.10353 12.8755 6.07129 13 6.07129C13.1244 6.07129 13.2467 6.10353 13.355 6.16489L18.82 9.22989C18.9268 9.28977 19.0158 9.3768 19.0781 9.48216C19.1405 9.58752 19.1739 9.70746 19.175 9.82988V15.9649C19.1739 16.0873 19.1405 16.2073 19.0781 16.3126C19.0158 16.418 18.9268 16.505 18.82 16.5649L13.375 19.6049C13.2667 19.6662 13.1444 19.6985 13.02 19.6985C12.8955 19.6985 12.7732 19.6662 12.665 19.6049L7.19997 16.5399C7.09319 16.48 7.00414 16.393 6.9418 16.2876C6.87947 16.1823 6.84606 16.0623 6.84497 15.9399V9.80489C6.84606 9.68247 6.87947 9.56251 6.9418 9.45715C7.00414 9.35179 7.09319 9.26476 7.19997 9.20488L12.645 6.16489Z" fill="#EDEDED"/>
<path fill-rule="evenodd" clip-rule="evenodd" d="M12.995 20.095C12.6375 20.093 12.2852 20.0092 11.965 19.85C11.245 19.48 10.305 18.905 9.39503 18.35C8.75003 17.955 8.14503 17.585 7.67003 17.32C7.31372 17.1221 7.01715 16.832 6.81132 16.4801C6.6055 16.1283 6.49799 15.7276 6.50003 15.32V10.46C6.50039 10.0493 6.61219 9.64634 6.82351 9.29413C7.03484 8.94192 7.33777 8.65365 7.70003 8.46004C8.91503 7.81504 10.86 6.76004 11.89 6.18004C12.2294 5.99088 12.6115 5.8916 13 5.8916C13.3886 5.8916 13.7706 5.99088 14.11 6.18004C15.275 6.83504 17.485 8.15504 18.745 8.95004C18.9763 9.09609 19.1668 9.29832 19.2988 9.53787C19.4309 9.77743 19.5001 10.0465 19.5 10.32V15.46C19.534 15.7781 19.4734 16.0991 19.3257 16.3828C19.1781 16.6665 18.95 16.9004 18.67 17.055C18.365 17.225 17.815 17.555 17.17 17.96C16.17 18.57 14.96 19.33 14.065 19.815C13.7366 19.9944 13.3692 20.0905 12.995 20.095ZM12.205 6.76004C11.175 7.33504 9.20502 8.39504 8.01002 9.04504C7.75007 9.18252 7.53258 9.38836 7.38103 9.64037C7.22947 9.89237 7.1496 10.181 7.15002 10.475V15.335C7.15118 15.6263 7.23012 15.912 7.37868 16.1625C7.52723 16.413 7.74002 16.6193 7.99502 16.76C8.49502 17.03 9.09002 17.4 9.73002 17.795C10.625 18.34 11.545 18.9 12.23 19.26C12.4667 19.3844 12.7301 19.4494 12.9975 19.4494C13.2649 19.4494 13.5283 19.3844 13.765 19.26C14.645 18.79 15.855 18.035 16.83 17.43C17.47 17.035 18.025 16.69 18.355 16.505C18.5262 16.4047 18.6646 16.2567 18.7534 16.0792C18.8421 15.9017 18.8774 15.7022 18.855 15.505V10.33C18.8556 10.1659 18.8141 10.0043 18.7345 9.8607C18.6548 9.71714 18.5397 9.59641 18.4 9.51004C17.145 8.71504 14.955 7.40504 13.8 6.76004C13.5577 6.62242 13.2837 6.55006 13.005 6.55006C12.7263 6.55006 12.4524 6.62242 12.21 6.76004H12.205Z" fill="#434345"/>
<path fill-rule="evenodd" clip-rule="evenodd" d="M12.6749 18.595V14.25C12.6779 13.8392 12.7913 13.4368 13.0033 13.0849C13.2153 12.733 13.5181 12.4447 13.8799 12.25L17.7599 10.18C17.9093 10.1077 18.0743 10.0737 18.2402 10.0811C18.406 10.0884 18.5674 10.137 18.7097 10.2223C18.8521 10.3076 18.971 10.4271 19.0557 10.5698C19.1404 10.7126 19.1882 10.8742 19.1949 11.04V15.805C19.1924 15.9711 19.1486 16.134 19.0674 16.2789C18.9862 16.4238 18.8702 16.5462 18.7299 16.635L14.1749 19.44C14.0262 19.5372 13.8537 19.5916 13.6762 19.5975C13.4987 19.6033 13.323 19.5603 13.1682 19.4731C13.0135 19.386 12.8857 19.258 12.7987 19.1031C12.7117 18.9483 12.6688 18.7725 12.6749 18.595Z" fill="#434345"/>
<path fill-rule="evenodd" clip-rule="evenodd" d="M14.6601 13.6101C14.7001 13.6101 14.6251 13.6701 14.6251 13.6701V14.0951C14.8187 14.0523 15.0169 14.0338 15.2151 14.0401C15.2501 14.0401 15.2601 14.0901 15.2501 14.1401L15.1551 14.5201C15.1461 14.5483 15.1307 14.5739 15.1101 14.5951C15.1019 14.5972 15.0933 14.5972 15.0851 14.5951H15.0501C14.8929 14.5593 14.7278 14.5862 14.5901 14.6701C14.4922 14.7132 14.4085 14.7829 14.3483 14.8713C14.2882 14.9597 14.2542 15.0633 14.2501 15.1701C14.2501 15.3651 14.3551 15.4251 14.7001 15.4301C15.1601 15.4301 15.3551 15.6401 15.3601 16.1001C15.3559 16.3396 15.299 16.5753 15.1936 16.7905C15.0882 17.0056 14.9368 17.1949 14.7501 17.3451V17.7701C14.7492 17.7962 14.7419 17.8218 14.7288 17.8444C14.7157 17.8671 14.6973 17.8862 14.6751 17.9001L14.4251 18.0451C14.3851 18.0451 14.2901 17.9901 14.2901 17.9901V17.5701C14.1294 17.6245 13.9588 17.6432 13.7901 17.6251C13.7601 17.6251 13.7501 17.5751 13.7601 17.5351L13.8551 17.1501C13.86 17.12 13.8739 17.0921 13.8951 17.0701H13.9201H13.9601C14.1391 17.1173 14.3295 17.0921 14.4901 17.0001C14.603 16.9457 14.699 16.8616 14.7677 16.7567C14.8364 16.6519 14.8753 16.5304 14.8801 16.4051C14.8801 16.1901 14.7601 16.1001 14.4751 16.0951C14.1901 16.0901 13.7751 16.0251 13.7701 15.4951C13.7701 15.0551 14.6301 14.3101 14.6301 14.3101V13.8851C14.6301 13.8851 14.3801 13.7701 14.4251 13.7501L14.6601 13.6101Z" fill="#EDEDED"/>
<path fill-rule="evenodd" clip-rule="evenodd" d="M17.5 16.405L16.325 17.095C16.3173 17.0994 16.3085 17.1018 16.2996 17.1017C16.2907 17.1016 16.2819 17.0992 16.2743 17.0946C16.2666 17.09 16.2603 17.0834 16.2561 17.0756C16.2518 17.0677 16.2497 17.0589 16.25 17.05V16.665C16.2504 16.647 16.2551 16.6295 16.2639 16.6138C16.2726 16.5981 16.285 16.5848 16.3 16.575L17.47 15.885C17.4781 15.8808 17.4871 15.8787 17.4962 15.8789C17.5053 15.8791 17.5142 15.8815 17.5221 15.886C17.5301 15.8904 17.5368 15.8968 17.5416 15.9045C17.5465 15.9121 17.5494 15.9209 17.55 15.93V16.325C17.5497 16.3429 17.5449 16.3605 17.5362 16.3762C17.5275 16.3919 17.5151 16.4052 17.5 16.415" fill="#4DA925"/>
<path d="M13 25C19.6274 25 25 19.6274 25 13C25 6.37258 19.6274 1 13 1C6.37258 1 1 6.37258 1 13C1 19.6274 6.37258 25 13 25Z" stroke="white" stroke-miterlimit="10"/>
</svg>
